#!OML:ASF E:\Steps\Project 1\Capture day 1\Session 2\Subject.ASF
:FULLY-SPECIFIED
:DEGREES
2350
root 11.5086 16.4079 3.69836 29.8432 -15.5072 3.14585
lowerback -9.96829 -2.66529 -0.388106
upperback 6.83714 -3.49275 -0.452271
thorax 13.0911 -1.65557 -1.01446
lowerneck 21.1342 6.00615 -10.1291
upperneck -49.5034 7.65695 4.54803
head -30.4189 4.14974 2.91304
rclavicle -2.00773e-014 -1.27222e-014
rhumerus -40.0424 22.7963 -70.1268
rradius 69.9917
rwrist 0.345446
rhand 6.42046 -774.032
rfingers 7.12502
rthumb 31.7239 998.707
lclavicle -2.00773e-014 -1.27222e-014
lhumerus -0.788255 -32.2998 54.9101
lradius 67.8022
lwrist -11.9718
lhand -16.9689 -16.348
lfingers 7.12502
lthumb 9.26535 -346.572
rfemur -40.7525 11.7547 0.842932
rtibia 6.16253
rfoot -6.99745 -4.75714
rtoes -23.6171
lfemur -36.233 7.23444 -31.1188
ltibia 6.25019
lfoot 0.154402 -9.25651
ltoes -20.0444
2351
root 11.5063 16.4079 3.70799 29.7383 -15.4948 3.22333
lowerback -10.1068 -2.69549 -0.306298
upperback 6.7987 -3.54944 -0.419582
thorax 13.1287 -1.67575 -1.04248
lowerneck 21.2753 5.99683 -10.011
upperneck -49.1787 7.58348 4.41543
head -29.7903 4.08621 2.7804
rclavicle -7.55382e-015 2.36554e-014
rhumerus -39.7466 22.9949 -70.6354
rradius 70.3634
rwrist 0.234526
rhand 5.55301 -773.581
rfingers 7.12502
rthumb 30.8973 998.998
lclavicle -7.55382e-015 2.36554e-014
lhumerus -0.228988 -32.8398 54.6879
lradius 68.0637
lwrist -11.9024
lhand -17.102 -16.8064
lfingers 7.12502
lthumb 9.13693 -347.024
rfemur -40.6699 11.7058 0.825726
rtibia 6.31727
rfoot -7.14273 -4.76734
rtoes -23.4342
lfemur -36.1306 7.04166 -31.0744
ltibia 6.36919
lfoot 0.0931203 -9.14721
ltoes -19.7146
2352
root 11.503 16.4096 3.71788 29.6138 -15.5128 3.26815
lowerback -10.106 -2.69736 -0.262643
upperback 6.68639 -3.56405 -0.366649
thorax 12.9982 -1.68338 -1.00749
lowerneck 20.7019 5.76983 -9.56455
upperneck -48.0156 7.325 4.32083
head -27.3356 3.85653 2.60292
rclavicle -7.15625e-015 1.59028e-014
rhumerus -39.6018 23.1939 -71.151
rradius 70.8227
rwrist 0.167379
rhand 4.55946 -772.832
rfingers 7.12502
rthumb 29.9497 999.572
lclavicle -7.15625e-015 1.59028e-014
lhumerus 0.213577 -33.6039 54.4616
lradius 68.4504
lwrist -11.4556
lhand -17.0076 -17.1475
lfingers 7.12502
lthumb 9.22798 -347.369
rfemur -40.6207 11.6209 0.911668
rtibia 6.58487
rfoot -7.29593 -4.58658
rtoes -23.4437
lfemur -35.9324 6.74389 -30.905
ltibia 6.35373
lfoot 0.124958 -8.86469
ltoes -18.29
2353
root 11.4955 16.4134 3.72963 29.5021 -15.5568 3.29268
lowerback -10.1637 -2.69757 -0.304309
upperback 6.57011 -3.56982 -0.251803
thorax 12.9096 -1.69713 -0.858667
lowerneck 20.0263 5.61777 -9.3657
upperneck -46.6631 7.15965 4.36541
head -25.2078 3.71631 2.55274
rclavicle 2.68359e-014 2.54444e-014
rhumerus -39.289 23.4532 -71.5675
rradius 71.1662
rwrist 0.0868526
rhand 3.82004 -772.095
rfingers 7.12502
rthumb 29.2439 1000.18
lclavicle 2.68359e-014 2.54444e-014
lhumerus 0.602669 -34.2275 54.4325
lradius 68.7606
lwrist -11.3302
lhand -17.0303 -17.2558
lfingers 7.12502
lthumb 9.20609 -347.477
rfemur -40.6027 11.6912 0.949326
rtibia 6.83821
rfoot -7.44205 -4.4754
rtoes -23.2822
lfemur -35.7749 6.61964 -30.7686
ltibia 6.36163
lfoot 0.182905 -8.73512
ltoes -17.406
2354
root 11.4857 16.4152 3.74629 29.4256 -15.598 3.31726
lowerback -10.4117 -2.73494 -0.329101
upperback 6.50039 -3.6282 -0.138412
thorax 12.9916 -1.73129 -0.744415
lowerneck 19.8405 5.93631 -9.9944
upperneck -46.093 7.62349 4.76868
head -24.7198 3.94658 2.75703
rclavicle -2.36554e-014 2.78299e-014
rhumerus -38.843 23.7862 -71.9805
rradius 71.5202
rwrist 0.154009
rhand 2.97352 -771.441
rfingers 7.12502
rthumb 28.4352 1000.7
lclavicle -2.36554e-014 2.78299e-014
lhumerus 1.0041 -34.6965 54.3362
lradius 69.0858
lwrist -11.3069
lhand -17.0495 -17.1923
lfingers 7.12502
lthumb 9.18762 -347.412
rfemur -40.5785 11.7744 0.975281
rtibia 7.05331
rfoot -7.59812 -4.44418
rtoes -23.3745
lfemur -35.6732 6.70102 -30.756
ltibia 6.4429
lfoot 0.127575 -8.87537
ltoes -18.6673
2355
root 11.4738 16.4195 3.76477 29.2185 -15.6731 3.3674
lowerback -10.5632 -2.75275 -0.357479
upperback 6.47449 -3.65169 -0.100073
thorax 13.0599 -1.74571 -0.699154
lowerneck 19.3695 5.97794 -10.0814
upperneck -45.0323 7.75483 4.9891
head -23.4967 3.96435 2.80892
rclavicle 1.6201e-014 9.93923e-015
rhumerus -38.392 24.0226 -72.4482
rradius 71.8882
rwrist 0.382577
rhand 2.0116 -770.707
rfingers 7.12502
rthumb 27.5157 1001.28
lclavicle 1.6201e-014 9.93923e-015
lhumerus 1.49848 -35.2526 53.9466
lradius 69.532
lwrist -11.032
lhand -16.7236 -17.2962
lfingers 7.12502
lthumb 9.50202 -347.53
rfemur -40.4032 11.7879 1.08288
rtibia 7.28042
rfoot -7.77951 -4.27716
rtoes -23.5473
lfemur -35.3386 6.72729 -30.7129
ltibia 6.36986
lfoot 0.13632 -8.86039
ltoes -20.3664
2356
root 11.4606 16.4252 3.7871 29.0034 -15.7216 3.32293
lowerback -10.742 -2.71715 -0.286092
upperback 6.46662 -3.62294 -0.0347213
thorax 13.1611 -1.72789 -0.670717
lowerneck 18.3454 5.80376 -9.7965
upperneck -43.6612 7.62924 4.99952
head -21.4579 3.82403 2.64389
rclavicle 1.02374e-014 -1.49089e-015
rhumerus -37.8506 24.2655 -72.8003
rradius 72.0757
rwrist 0.594069
rhand 1.48982 -770.127
rfingers 7.12502
rthumb 27.0166 1001.79
lclavicle 1.02374e-014 -1.49089e-015
lhumerus 1.98833 -35.7349 53.7298
lradius 69.9082
lwrist -10.7944
lhand -16.3529 -17.5636
lfingers 7.12502
lthumb 9.85971 -347.814
rfemur -40.1539 11.7281 1.40191
rtibia 7.49555
rfoot -7.95645 -3.97053
rtoes -23.6051
lfemur -34.8991 6.56409 -30.4527
ltibia 6.22353
lfoot 0.221855 -8.51846
ltoes -20.3356
2357
root 11.447 16.4278 3.80832 28.8827 -15.6895 3.21445
lowerback -10.8631 -2.70649 -0.170678
upperback 6.32755 -3.64481 0.125468
thorax 13.078 -1.73749 -0.566053
lowerneck 17.6069 5.74021 -9.6832
upperneck -41.9273 7.52302 4.96276
head -19.9798 3.76707 2.58118
rclavicle -1.55052e-014 2.00773e-014
rhumerus -37.4554 24.6652 -73.0841
rradius 72.2375
rwrist 0.750962
rhand 1.00593 -769.542
rfingers 7.12502
rthumb 26.5535 1002.3
lclavicle -1.55052e-014 2.00773e-014
lhumerus 2.2539 -36.371 53.7052
lradius 70.1828
lwrist -10.5487
lhand -16.446 -17.5898
lfingers 7.12502
lthumb 9.76987 -347.836
rfemur -39.9887 11.7173 1.75185
rtibia 7.74018
rfoot -8.17691 -3.79819
rtoes -23.8602
lfemur -34.6392 6.32985 -30.1103
ltibia 6.29093
lfoot 0.0538522 -8.18869
ltoes -20.2869
2358
root 11.432 16.4299 3.81988 28.6842 -15.6558 3.22018
lowerback -10.6402 -2.70146 -0.239831
upperback 6.03069 -3.64094 0.286686
thorax 12.6136 -1.75588 -0.328602
lowerneck 17.1429 5.80099 -9.80437
upperneck -40.2599 7.57357 5.06685
head -18.8025 3.79067 2.59878
rclavicle 1.16786e-014 2.88238e-015
rhumerus -37.3742 24.9907 -73.4362
rradius 72.6174
rwrist 0.866141
rhand 0.220065 -768.742
rfingers 7.12502
rthumb 25.8011 1002.99
lclavicle 1.16786e-014 2.88238e-015
lhumerus 2.34047 -37.3046 53.6073
lradius 70.5333
lwrist -10.4254
lhand -16.8763 -17.6154
lfingers 7.12502
lthumb 9.35465 -347.843
rfemur -39.8341 11.9033 1.8296
rtibia 7.95548
rfoot -8.37019 -3.89085
rtoes -23.8383
lfemur -34.5024 6.35077 -29.9994
ltibia 6.55017
lfoot -0.179319 -8.20321
ltoes -21.6247
2359
root 11.4168 16.4314 3.83096 28.4242 -15.6532 3.37894
lowerback -10.5149 -2.7065 -0.42067
upperback 5.79795 -3.62273 0.349105
thorax 12.2861 -1.76858 -0.141798
lowerneck 16.6238 5.86488 -10.0515
upperneck -38.589 7.70899 5.45096
head -17.736 3.83055 2.75697
rclavicle 5.14355e-015 -3.26504e-014
rhumerus -37.1725 25.2989 -73.82
rradius 73.0656
rwrist 0.888894
rhand -0.875388 -768.021
rfingers 7.12502
rthumb 24.7516 1003.56
lclavicle 5.14355e-015 -3.26504e-014
lhumerus 2.38651 -37.8834 53.5281
lradius 71.0404
lwrist -10.5497
lhand -16.7973 -17.9671
lfingers 7.12502
lthumb 9.4309 -348.198
rfemur -39.6709 11.8571 1.81934
rtibia 8.20527
rfoot -8.49474 -3.80568
rtoes -23.5956
lfemur -34.3957 6.58107 -30.1782
ltibia 6.87781
lfoot -0.321819 -8.50484
ltoes -23.3231
2360
root 11.3989 16.4325 3.8525 28.222 -15.5983 3.50571
lowerback -10.7437 -2.77135 -0.521764
upperback 5.67674 -3.69929 0.41288
thorax 12.2994 -1.81511 -0.0402106
lowerneck 15.7627 5.82562 -10.0345
upperneck -36.6158 7.71031 5.65558
head -16.4555 3.80751 2.81011
rclavicle -9.25634e-015 1.14436e-014
rhumerus -36.7394 25.7051 -74.125
rradius 73.5084
rwrist 0.939952
rhand -1.46726 -767.737
rfingers 7.12502
rthumb 24.1843 1003.77
lclavicle -9.25634e-015 1.14436e-014
lhumerus 2.41795 -38.0054 53.5709
lradius 71.5367
lwrist -10.8055
lhand -16.1916 -18.2398
lfingers 7.12502
lthumb 10.0153 -348.498
rfemur -39.4763 11.5046 2.04753
rtibia 8.53795
rfoot -8.67128 -3.42347
rtoes -23.6095
lfemur -34.0927 6.54854 -30.2199
ltibia 6.86115
lfoot -0.351586 -8.57215
ltoes -24.1338
2361
root 11.3772 16.437 3.87424 28.0296 -15.5411 3.54903
lowerback -11.035 -2.79882 -0.592467
upperback 5.61622 -3.73334 0.498617
thorax 12.4197 -1.83936 0.0720208
lowerneck 14.9999 5.69775 -9.89405
upperneck -34.7511 7.53127 5.66613
head -15.3088 3.71981 2.79457
rclavicle -3.89121e-014 -2.85753e-014
rhumerus -36.192 25.9521 -74.3329
rradius 73.9588
rwrist 0.986444
rhand -1.38872 -767.818
rfingers 7.12502
rthumb 24.2596 1003.7
lclavicle -3.89121e-014 -2.85753e-014
lhumerus 2.7055 -38.1656 53.5466
lradius 71.8724
lwrist -11.1435
lhand -15.7661 -18.3267
lfingers 7.12502
lthumb 10.4258 -348.605
rfemur -39.2729 11.3465 2.31581
rtibia 8.79754
rfoot -8.82556 -3.1989
rtoes -23.7379
lfemur -33.6437 6.16177 -29.949
ltibia 6.62941
lfoot -0.402489 -8.16226
ltoes -24.1493
2362
root 11.3541 16.4434 3.88933 27.8015 -15.5089 3.6372
lowerback -11.3349 -2.72519 -0.680016
upperback 5.62666 -3.61917 0.497144
thorax 12.619 -1.79031 0.128761
lowerneck 13.8564 5.3748 -9.37431
upperneck -32.4875 7.11104 5.45493
head -13.9177 3.51665 2.6694
rclavicle 3.72721e-014 -8.24956e-015
rhumerus -35.4978 25.9003 -74.5514
rradius 74.2468
rwrist 0.945162
rhand -1.59787 -767.707
rfingers 7.12502
rthumb 24.059 1003.78
lclavicle 3.72721e-014 -8.24956e-015
lhumerus 3.51656 -38.5219 53.0893
lradius 72.1742
lwrist -11.2114
lhand -15.2869 -18.6383
lfingers 7.12502
lthumb 10.888 -348.941
rfemur -39.108 11.3964 2.39639
rtibia 9.0353
rfoot -8.98837 -3.21777
rtoes -23.7694
lfemur -33.2946 5.58246 -29.6114
ltibia 6.64195
lfoot -0.664703 -7.52844
ltoes -24.6982
2363
root 11.3286 16.4474 3.91009 27.5863 -15.379 3.68676
lowerback -11.6859 -2.66911 -0.677638
upperback 5.59977 -3.5425 0.496019
thorax 12.8012 -1.7514 0.126822
lowerneck 13.0485 5.2562 -9.32167
upperneck -30.6872 7.02707 5.72992
head -12.9661 3.45041 2.76859
rclavicle -9.44227e-016 1.5704e-014
rhumerus -34.8906 25.9371 -74.8553
rradius 74.4896
rwrist 0.809815
rhand -2.05964 -767.547
rfingers 7.12502
rthumb 23.6162 1003.88
lclavicle -9.44227e-016 1.5704e-014
lhumerus 4.35167 -39.0062 52.4553
lradius 72.4532
lwrist -11.094
lhand -14.605 -19.0172
lfingers 7.12502
lthumb 11.5457 -349.355
rfemur -38.8271 11.2991 2.62447
rtibia 9.22276
rfoot -9.14337 -3.15595
rtoes -23.676
lfemur -33.0363 5.26446 -29.3745
ltibia 6.85019
lfoot -0.931903 -7.29698
ltoes -25.4471
